<svg width="35" height="31" viewBox="0 0 35 31" fill="none" xmlns="http://www.w3.org/2000/svg">
<path fill-rule="evenodd" clip-rule="evenodd" d="M14.5784 26.8581C18.282 30.4357 23.4868 31.5185 28.7059 29.2814L33.0846 31L31.626 27.5427C36.4918 23.6242 35.6144 18.2391 32.0362 14.5669C31.7972 15.9647 31.3273 17.3124 30.646 18.5542C29.6421 20.3568 28.2726 21.927 26.6262 23.163C24.9369 24.4462 23.0335 25.4161 21.0055 26.0274C18.9217 26.6514 16.7516 26.9338 14.5784 26.8638V26.8581ZM21.296 10.3563C21.6724 10.3563 22.0404 10.4685 22.3533 10.6787C22.6663 10.889 22.9102 11.1878 23.0542 11.5375C23.1982 11.8871 23.2359 12.2718 23.1625 12.643C23.0891 13.0141 22.9078 13.3551 22.6417 13.6227C22.3755 13.8903 22.0365 14.0725 21.6673 14.1463C21.2981 14.2202 20.9155 14.1823 20.5678 14.0375C20.22 13.8926 19.9228 13.6474 19.7137 13.3327C19.5046 13.0181 19.393 12.6481 19.393 12.2697C19.393 11.7622 19.5935 11.2755 19.9504 10.9167C20.3073 10.5579 20.7913 10.3563 21.296 10.3563ZM8.71836 10.3563C9.09475 10.3563 9.46268 10.4685 9.77563 10.6787C10.0886 10.889 10.3325 11.1878 10.4765 11.5375C10.6206 11.8871 10.6583 12.2718 10.5848 12.643C10.5114 13.0141 10.3302 13.3551 10.064 13.6227C9.79787 13.8903 9.45878 14.0725 9.08963 14.1463C8.72048 14.2202 8.33784 14.1823 7.99011 14.0375C7.64237 13.8926 7.34516 13.6474 7.13605 13.3327C6.92694 13.0181 6.81533 12.6481 6.81533 12.2697C6.81533 11.7622 7.01583 11.2755 7.37272 10.9167C7.72961 10.5579 8.21365 10.3563 8.71836 10.3563ZM15.0086 10.3563C15.3851 10.3557 15.7533 10.4674 16.0667 10.6774C16.38 10.8873 16.6244 11.1859 16.7688 11.5355C16.9133 11.8851 16.9514 12.2699 16.8783 12.6412C16.8052 13.0126 16.6242 13.3538 16.3581 13.6217C16.0921 13.8896 15.753 14.0721 15.3838 14.1461C15.0146 14.2202 14.6318 14.1825 14.2839 14.0377C13.936 13.893 13.6386 13.6478 13.4294 13.333C13.2201 13.0183 13.1084 12.6483 13.1084 12.2697C13.1084 11.7622 13.3089 11.2755 13.6658 10.9167C14.0227 10.5579 14.5068 10.3563 15.0115 10.3563H15.0086ZM15.3875 0.00720001C19.4956 0.133234 23.1791 1.59981 25.8143 3.87127C28.4951 6.18284 30.0876 9.31363 30.0021 12.7509C29.8996 16.1882 28.1048 19.2273 25.2873 21.3756C22.5096 23.5096 18.7492 24.7556 14.6411 24.641C13.5231 24.6091 12.4103 24.4749 11.3165 24.24C10.3436 24.0295 9.39049 23.7352 8.46767 23.3606L2.04066 25.8928L4.18869 20.7598C2.93082 19.69 1.89582 18.3807 1.14327 16.9072C0.348999 15.3555 -0.0429509 13.6274 0.00373173 11.883C0.10629 8.44572 1.90107 5.40659 4.71858 3.25543C7.49621 1.15296 11.2652 -0.107376 15.3875 0.00720001ZM15.3476 1.49669C11.5672 1.38784 8.12865 2.51928 5.61312 4.43556C3.13747 6.30888 1.5706 8.96704 1.48229 11.9231C1.44191 13.4214 1.77695 14.9058 2.45659 16.2397C3.20235 17.6909 4.25319 18.9615 5.5362 19.9635L5.98632 20.3072L4.75561 23.2232L8.48191 21.7509L8.7668 21.8712C9.69031 22.2653 10.649 22.5703 11.6299 22.782C12.6336 22.9986 13.6549 23.1223 14.681 23.1515C18.4472 23.2633 21.8857 22.1318 24.4013 20.2127C26.8712 18.3394 28.4438 15.6841 28.535 12.7251C28.6204 9.76907 27.2103 7.0393 24.8599 5.01417C22.4669 2.94607 19.1081 1.61126 15.3505 1.49669H15.3476Z" fill="black" fill-opacity="0.46"/>
</svg>
