<svg width="36" height="24" viewBox="0 0 36 24" fill="none" xmlns="http://www.w3.org/2000/svg">
<path d="M15.6377 13.8047H20.3633C20.9153 13.8047 21.4622 13.8994 21.9805 14.083L22.2002 14.167C22.7096 14.376 23.178 14.67 23.585 15.0352L23.7559 15.1963C24.1448 15.5815 24.463 16.0292 24.6973 16.5195L24.793 16.7324C25.033 17.3064 25.1564 17.9213 25.1562 18.542V21.832C23.1189 22.5634 20.6616 23 18.001 23C15.3403 23 12.8823 22.5637 10.8438 21.833V18.542C10.8438 17.2888 11.3472 16.0854 12.2451 15.1963C13.1433 14.3068 14.3632 13.8048 15.6377 13.8047ZM5.7959 10.3779H10.5215C10.9418 10.3777 11.36 10.432 11.7646 10.5391C11.8619 10.754 11.9699 10.9636 12.0889 11.167C11.0055 11.6807 10.0433 12.4246 9.27441 13.3516L9.06641 13.6133C7.98269 15.0338 7.39486 16.767 7.39453 18.5498V19.5635C5.02774 19.4882 2.8437 19.0648 1 18.4043V15.1182C0.999684 14.5747 1.0939 14.0355 1.27832 13.5244L1.36328 13.3076C1.57339 12.8048 1.8694 12.3416 2.23828 11.9385L2.40039 11.7695C2.84534 11.3288 3.3743 10.9782 3.95703 10.7393C4.46688 10.5303 5.00915 10.4104 5.55957 10.3838L5.7959 10.3779ZM25.4814 10.3779H30.207C30.7593 10.378 31.3067 10.4724 31.8252 10.6562L32.0449 10.7402C32.5544 10.9494 33.0227 11.244 33.4297 11.6094L33.6006 11.7705C33.9896 12.156 34.3078 12.604 34.542 13.0947L34.6377 13.3076C34.8476 13.8101 34.9675 14.3442 34.9941 14.8857L35 15.1182V18.4072C33.1578 19.0683 30.9738 19.4862 28.6055 19.5605V18.5459C28.6044 16.8752 28.0873 15.2485 27.1299 13.8818L26.9326 13.6123C26.1325 12.564 25.0939 11.7289 23.9111 11.168C24.0302 10.9644 24.139 10.7551 24.2363 10.54C24.574 10.4506 24.9207 10.3978 25.2705 10.3828L25.4814 10.3779ZM17.0967 4.55078C17.6623 4.39624 18.2577 4.39003 18.8242 4.53027L19.0645 4.59961C19.6214 4.7816 20.1187 5.10245 20.5098 5.52832L20.6709 5.7168C21.0306 6.17186 21.2641 6.70946 21.3506 7.27637L21.3779 7.52051C21.4285 8.1767 21.2822 8.83412 20.9561 9.40918C20.6706 9.91252 20.2581 10.3337 19.7598 10.6328L19.541 10.7539L19.5391 10.7549C19.2865 10.883 19.0177 10.9783 18.7402 11.0391L18.7393 11.04C17.9986 11.2034 17.2242 11.1158 16.54 10.793C15.9414 10.5104 15.4428 10.062 15.1025 9.50684L14.9668 9.2627C14.707 8.74627 14.5871 8.17408 14.6172 7.60156L14.6396 7.35645C14.7126 6.78501 14.9334 6.24256 15.2803 5.78125L15.4365 5.58887C15.8187 5.15195 16.3082 4.8203 16.8574 4.62598L17.0967 4.55078ZM26.5449 1.25586C27.0875 1.03332 27.6782 0.954761 28.2588 1.02539L28.5078 1.06445C29.0844 1.1781 29.619 1.4375 30.0605 1.81445L30.2432 1.9834C30.6571 2.39331 30.9554 2.90023 31.1104 3.4541L31.168 3.69434C31.2816 4.26042 31.2445 4.84476 31.0625 5.39062L30.9756 5.62207C30.7523 6.15557 30.393 6.62221 29.9336 6.97754L29.7305 7.12305C29.1731 7.49181 28.5169 7.68943 27.8447 7.68945C26.9995 7.68945 26.1883 7.37795 25.5674 6.82129L25.4453 6.70605C24.8113 6.07805 24.457 5.22845 24.457 4.34473C24.457 3.76792 24.6083 3.20196 24.8945 2.70117L25.0254 2.49023C25.3502 2.00895 25.7956 1.61961 26.3174 1.35938L26.5449 1.25586ZM6.85645 1.25586C7.3992 1.03324 7.99049 0.954632 8.57129 1.02539L8.81934 1.06445C9.39596 1.17804 9.93049 1.43752 10.3721 1.81445L10.5557 1.9834C10.9695 2.39324 11.2669 2.90039 11.4219 3.4541L11.4795 3.69434C11.5932 4.26047 11.5561 4.84471 11.374 5.39062L11.2881 5.62207C11.0329 6.23204 10.5992 6.75439 10.042 7.12305C9.48465 7.49179 8.8284 7.68945 8.15625 7.68945C7.25474 7.68939 6.39232 7.33437 5.75781 6.70605C5.12364 6.07802 4.76855 5.22859 4.76855 4.34473C4.76857 3.76798 4.9199 3.20192 5.20605 2.70117L5.33691 2.49023C5.66162 2.00901 6.10719 1.61962 6.62891 1.35938L6.85645 1.25586Z" stroke="black" stroke-opacity="0.46" stroke-width="2"/>
</svg>
