<svg width="31" height="31" viewBox="0 0 31 31" fill="none" xmlns="http://www.w3.org/2000/svg">
<path d="M15.5 20.5625L20.5625 15.5M20.5625 15.5L15.5 10.4375M20.5625 15.5H2M10.4375 7.482V7.40034C10.4375 5.51015 10.4375 4.56436 10.8054 3.84241C11.1289 3.20736 11.6449 2.69142 12.2799 2.36786C13.0018 2 13.9477 2 15.8378 2H23.6003C25.4905 2 26.4343 2 27.1562 2.36786C27.7912 2.69142 28.309 3.20736 28.6325 3.84241C29 4.56365 29 5.5083 29 7.39479V23.6061C29 25.4925 29 26.4358 28.6325 27.1571C28.309 27.7921 27.7912 28.309 27.1562 28.6325C26.435 29 25.4917 29 23.6052 29H15.8323C13.9458 29 13.0011 29 12.2799 28.6325C11.6449 28.309 11.1289 27.7916 10.8054 27.1566C10.4375 26.4347 10.4375 25.4902 10.4375 23.6V23.5156" stroke="black" stroke-opacity="0.46" stroke-width="3" stroke-linecap="round" stroke-linejoin="round"/>
</svg>
